<svg xmlns="http://www.w3.org/2000/svg" xmlns:xlink="http://www.w3.org/1999/xlink" width="300" zoomAndPan="magnify" viewBox="0 0 224.87999 60" height="80" preserveAspectRatio="xMidYMid meet" version="1.0"><defs><clipPath id="b121a4f8fd"><path d="M 36 2 L 188 2 L 188 59.984375 L 36 59.984375 Z M 36 2 " clip-rule="nonzero"/></clipPath></defs><g clip-path="url(#b121a4f8fd)"><path stroke-linecap="butt" transform="matrix(0.647032, 0, 0, 0.647032, 0.00000000000008522, -4.491524)" fill="none" stroke-linejoin="miter" d="M 81.429546 46.280031 C 88.0463 50.240424 97.246969 55.752374 97.246969 62.296682 C 97.246969 68.146714 89.030361 71.41283 82.262677 71.41283 C 77.396706 71.41283 72.518661 69.613749 72.518661 66.196703 C 72.518661 65.291125 72.856744 64.325176 73.623466 63.268668 C 74.046069 62.640801 74.184924 62.097455 74.184924 61.602405 C 74.184924 61.107356 73.97966 60.769274 73.623466 60.769274 C 72.723925 60.769274 70.423758 63.407524 70.423758 66.263112 C 70.423758 71.280012 76.412645 73.725072 82.824135 73.725072 C 91.602202 73.725072 99.679955 69.1187 99.679955 62.435537 C 99.679955 54.490602 88.94584 48.079112 82.486053 44.185128 C 79.201825 42.162671 76.907694 39.101819 76.907694 36.173784 C 76.907694 30.529016 85.257121 28.234886 89.573708 28.234886 C 93.691068 28.234886 95.85238 30.124525 95.85238 31.718342 C 95.85238 31.923606 95.785971 32.12887 95.713524 32.352246 C 95.580706 32.756738 94.880393 32.829184 94.524199 33.251787 C 94.186117 33.746836 94.02915 34.151327 94.02915 34.507521 C 94.02915 35.123314 94.590608 35.479508 95.290921 35.479508 C 96.685511 35.479508 98.080101 34.018509 98.080101 31.790788 C 98.080101 29.001609 95.224512 26.212429 89.573708 26.212429 C 83.0294 26.212429 74.679973 29.490621 74.679973 36.451494 C 74.679973 39.93495 76.974103 43.696116 81.429546 46.280031 Z M 136.041917 46.841489 C 135.552905 51.701423 135.275195 57.279781 135.275195 63.202259 C 135.275195 72.264073 135.347641 73.368878 136.669785 73.368878 C 137.370098 73.368878 138.203229 72.674602 138.203229 71.702615 C 138.203229 71.636206 138.203229 71.636206 138.203229 71.569797 C 137.847036 67.518846 137.641771 63.558453 137.641771 59.869733 C 137.641771 42.862985 140.992409 30.396198 141.469346 29.001609 C 141.692722 28.50656 142.030804 28.234886 142.236069 27.739837 C 142.320589 27.607019 142.320589 27.468164 142.320589 27.335346 C 142.320589 26.568623 141.402937 26.073574 140.926 26.073574 C 140.008348 26.073574 139.241625 27.11197 138.903543 28.234886 C 138.698279 29.001609 137.231243 35.545917 136.247182 45.090706 C 136.114364 45.018259 135.975508 45.018259 135.836653 45.018259 C 135.770244 45.018259 135.685723 45.018259 135.619314 45.018259 C 133.681378 45.718573 120.719543 48.368897 113.746595 49.002801 C 114.03638 46.213622 114.241644 43.557261 114.241644 40.973346 C 114.241644 35.890036 113.342103 26.345247 109.158334 26.345247 C 108.252757 26.345247 107.763745 26.973115 107.763745 27.673428 C 107.763745 28.029622 107.896563 28.367704 108.186348 28.572969 C 108.663285 29.068018 109.357562 28.729935 109.786202 29.563067 C 111.180791 32.195279 111.875068 36.379048 111.875068 41.468395 C 111.875068 43.828934 111.724138 46.412849 111.452465 49.135619 C 110.552924 49.135619 109.852611 49.06921 109.496417 48.845834 C 109.085888 48.64057 108.596876 48.507752 108.252757 48.507752 C 107.62489 48.507752 107.202287 48.779425 107.202287 49.340884 C 107.202287 51.158076 109.496417 51.296931 111.180791 51.296931 C 110.34766 57.77483 108.796103 64.953043 106.640828 72.046735 C 106.568382 72.197664 106.568382 72.330482 106.568382 72.402929 C 106.568382 73.097205 107.202287 73.507733 107.830154 73.507733 C 108.458021 73.507733 109.158334 73.097205 109.357562 72.113144 C 111.114382 65.019452 112.708199 57.913686 113.54133 51.230522 C 121.19648 50.669064 133.608932 47.879885 135.909099 46.907898 Z M 182.914618 34.579967 C 183.065548 34.223773 183.204403 33.746836 183.204403 33.318196 C 183.204403 30.040004 178.459176 26.212429 171.842422 26.212429 C 158.68136 26.212429 149.48069 40.635263 149.48069 53.591062 C 149.48069 65.357534 156.520047 73.930336 166.891931 73.930336 C 175.193059 73.930336 187.86511 67.518846 187.86511 49.135619 C 187.86511 40.206623 184.309208 34.579967 182.914618 34.579967 Z M 182.437681 35.340653 C 182.437681 35.684772 182.570499 36.107375 182.848209 36.584313 C 184.598993 40.073805 185.498533 44.529247 185.498533 48.912243 C 185.498533 66.752124 173.237012 71.636206 167.181715 71.636206 C 159.5809 71.636206 152.064605 65.852583 152.064605 53.591062 C 152.064605 41.263131 160.770225 28.301295 171.908831 28.301295 C 177.831309 28.301295 180.342778 31.996052 180.342778 32.829184 C 180.342778 33.390642 179.78132 33.946063 179.78132 34.579967 C 179.78132 34.91805 180.276369 35.890036 181.248356 35.890036 C 181.670958 35.890036 182.081487 35.684772 182.437681 35.340653 Z M 204.03269 29.273282 C 203.181447 30.323752 202.776956 31.718342 202.55358 33.251787 C 201.515184 42.591311 201.026172 59.507502 199.359909 72.113144 C 198.164547 81.313813 192.6043 91.480432 188.215267 91.480432 C 187.925482 91.480432 187.653808 91.414023 187.653808 90.852565 C 187.653808 90.580891 187.726255 90.224698 187.859073 89.74776 C 187.925482 89.614942 187.925482 89.457975 187.925482 89.325157 C 187.925482 88.981038 187.726255 88.763699 187.52099 88.763699 C 186.331665 88.763699 185.293269 91.685696 185.293269 92.536939 C 185.293269 92.808613 185.293269 93.997938 186.893123 93.997938 C 192.670709 93.997938 200.120595 84.73086 201.786857 72.964387 C 203.676496 59.579949 204.099099 42.790538 205.071086 33.185378 C 205.342759 30.124525 206.175891 29.206873 209.882722 29.134427 C 210.715853 29.134427 211.192791 28.440151 211.192791 27.812283 C 211.192791 26.906706 210.583035 26.635032 209.526528 26.635032 C 207.232398 26.635032 201.243511 27.739837 198.659596 27.739837 C 198.249067 27.739837 197.892873 27.739837 197.687609 27.673428 C 197.403861 27.607019 197.126151 27.534573 196.926924 27.534573 C 196.22661 27.534573 195.731561 27.878692 195.731561 28.367704 C 195.731561 28.729935 196.009272 29.83474 198.249067 29.83474 C 199.987776 29.83474 202.215498 29.273282 203.815352 29.273282 C 203.881761 29.273282 203.94817 29.273282 204.03269 29.273282 Z M 221.504302 70.579699 C 223.170565 69.257555 223.732023 68.013895 223.937288 65.635245 C 225.060204 54.629457 226.032191 41.534804 226.388385 33.185378 C 226.521203 30.124525 227.354334 28.929162 231.049091 28.862753 C 231.882223 28.862753 232.371235 28.301295 232.371235 27.812283 C 232.371235 27.607019 232.304826 26.840297 230.638563 26.840297 C 228.259912 26.840297 222.627219 27.812283 220.043304 27.812283 C 219.548255 27.812283 219.143763 27.739837 218.938499 27.673428 C 218.648714 27.607019 218.44345 27.534573 218.244223 27.534573 C 217.543909 27.534573 217.121306 27.878692 217.121306 28.367704 C 217.121306 28.50656 217.187715 29.83474 219.548255 29.83474 C 221.232629 29.83474 223.46035 29.273282 225.060204 29.273282 C 225.126613 29.273282 225.199059 29.273282 225.265468 29.273282 C 224.432337 30.323752 223.937288 31.651933 223.80447 33.251787 C 223.261123 41.534804 222.476289 55.613518 221.504302 64.868522 C 221.01529 69.680158 220.043304 70.935893 215.165259 70.935893 C 214.126863 70.935893 213.631814 71.497351 213.631814 72.113144 C 213.631814 72.608193 214.060454 73.169651 214.75473 73.169651 C 214.821139 73.169651 214.959994 73.097205 215.092812 73.097205 C 217.187715 72.608193 221.437893 72.330482 224.85494 72.330482 C 226.660058 72.330482 228.187466 72.402929 229.111155 72.535747 C 229.243973 72.535747 229.382828 72.608193 229.515646 72.608193 C 230.348778 72.608193 230.777418 72.113144 230.777418 71.636206 C 230.777418 70.51329 229.654502 70.308026 227.155107 70.308026 C 225.060204 70.308026 222.337434 70.446881 221.504302 70.579699 Z M 243.370985 72.264073 C 243.304576 71.008339 243.304576 69.613749 243.304576 68.285569 C 243.304576 57.146963 245.399479 33.046522 245.960937 33.046522 C 246.093755 33.046522 246.299019 33.457051 246.522395 34.151327 C 249.716066 45.223524 258.222459 64.868522 263.444624 70.652145 C 264.839213 72.264073 266.505476 73.030796 267.761211 73.030796 C 269.988932 73.030796 269.988932 71.280012 269.988932 69.052291 C 270.417572 52.063654 270.822063 33.251787 275.277505 28.168477 C 275.56729 27.878692 275.633699 27.534573 275.633699 27.2629 C 275.633699 26.635032 275.005832 26.073574 274.311556 26.073574 C 273.967436 26.073574 273.544833 26.212429 273.27316 26.635032 C 268.660751 32.12887 268.25626 52.468145 267.694802 69.052291 C 267.694802 69.680158 267.423128 70.308026 266.86167 70.308026 C 263.867227 70.308026 253.833426 51.701423 247.983394 32.352246 C 247.488345 30.80069 246.860478 29.001609 246.860478 27.812283 L 246.860478 27.739837 C 246.860478 26.906706 246.160164 26.278838 245.465888 26.278838 C 245.055359 26.278838 244.699166 26.502214 244.427492 26.973115 C 243.66077 28.50656 241.010446 56.313832 241.010446 70.102761 C 241.010446 72.046735 241.010446 73.797518 242.26618 73.797518 C 242.827638 73.797518 243.370985 73.302469 243.370985 72.330482 Z M 243.370985 72.264073 " stroke="#000000" stroke-width="2.612426" stroke-opacity="1" stroke-miterlimit="4"/></g><path stroke-linecap="butt" transform="matrix(0.7496, 0, 0, 0.7496, 48.776904, 46.934339)" fill="none" stroke-linejoin="miter" d="M 0.000586158 0.499273 L 162.467457 0.499273 " stroke="#000000" stroke-width="1" stroke-opacity="1" stroke-miterlimit="4"/></svg>